<mxfile host="app.diagrams.net" modified="2021-08-13T11:21:06.846Z" agent="5.0 (Windows NT 6.1; WOW64) AppleWebKit/537.36 (KHTML, like Gecko) Chrome/72.0.3626.121 Safari/537.36" etag="SxZlXVc1S7BWzBDYgZvh" version="14.9.6" type="github">
  <diagram id="OFNgPciBXlpjCOUzDxUy" name="Page-1">
    <mxGraphModel dx="981" dy="553" grid="1" gridSize="10" guides="1" tooltips="1" connect="1" arrows="1" fold="1" page="1" pageScale="1" pageWidth="827" pageHeight="1169" math="0" shadow="0">
      <root>
        <mxCell id="0" />
        <mxCell id="1" parent="0" />
        <mxCell id="LJfeOr0qLocQW3mJg4BL-19" style="edgeStyle=orthogonalEdgeStyle;rounded=0;orthogonalLoop=1;jettySize=auto;html=1;exitX=0.5;exitY=1;exitDx=0;exitDy=0;entryX=0.5;entryY=0;entryDx=0;entryDy=0;" edge="1" parent="1" source="LJfeOr0qLocQW3mJg4BL-1" target="LJfeOr0qLocQW3mJg4BL-6">
          <mxGeometry relative="1" as="geometry" />
        </mxCell>
        <mxCell id="LJfeOr0qLocQW3mJg4BL-1" value="分帧图像处理-并三维数字化矩阵" style="rounded=0;whiteSpace=wrap;html=1;" vertex="1" parent="1">
          <mxGeometry x="330" y="220" width="120" height="60" as="geometry" />
        </mxCell>
        <mxCell id="LJfeOr0qLocQW3mJg4BL-18" style="edgeStyle=orthogonalEdgeStyle;rounded=0;orthogonalLoop=1;jettySize=auto;html=1;exitX=0.5;exitY=1;exitDx=0;exitDy=0;" edge="1" parent="1" source="LJfeOr0qLocQW3mJg4BL-2" target="LJfeOr0qLocQW3mJg4BL-5">
          <mxGeometry relative="1" as="geometry" />
        </mxCell>
        <mxCell id="LJfeOr0qLocQW3mJg4BL-2" value="音频处理-并转换为语音谱" style="rounded=0;whiteSpace=wrap;html=1;" vertex="1" parent="1">
          <mxGeometry x="150" y="220" width="120" height="60" as="geometry" />
        </mxCell>
        <mxCell id="LJfeOr0qLocQW3mJg4BL-17" style="edgeStyle=orthogonalEdgeStyle;rounded=0;orthogonalLoop=1;jettySize=auto;html=1;" edge="1" parent="1" source="LJfeOr0qLocQW3mJg4BL-3" target="LJfeOr0qLocQW3mJg4BL-1">
          <mxGeometry relative="1" as="geometry" />
        </mxCell>
        <mxCell id="LJfeOr0qLocQW3mJg4BL-28" style="edgeStyle=orthogonalEdgeStyle;rounded=0;orthogonalLoop=1;jettySize=auto;html=1;entryX=0.5;entryY=0;entryDx=0;entryDy=0;" edge="1" parent="1" source="LJfeOr0qLocQW3mJg4BL-3" target="LJfeOr0qLocQW3mJg4BL-2">
          <mxGeometry relative="1" as="geometry" />
        </mxCell>
        <mxCell id="LJfeOr0qLocQW3mJg4BL-3" value="&lt;span&gt;视频采集&lt;/span&gt;" style="rounded=1;whiteSpace=wrap;html=1;" vertex="1" parent="1">
          <mxGeometry x="240" y="120" width="120" height="60" as="geometry" />
        </mxCell>
        <mxCell id="LJfeOr0qLocQW3mJg4BL-21" style="edgeStyle=orthogonalEdgeStyle;rounded=0;orthogonalLoop=1;jettySize=auto;html=1;exitX=0.5;exitY=1;exitDx=0;exitDy=0;" edge="1" parent="1" source="LJfeOr0qLocQW3mJg4BL-5">
          <mxGeometry relative="1" as="geometry">
            <mxPoint x="310" y="400" as="targetPoint" />
          </mxGeometry>
        </mxCell>
        <mxCell id="LJfeOr0qLocQW3mJg4BL-5" value="音频特征提取" style="rounded=0;whiteSpace=wrap;html=1;" vertex="1" parent="1">
          <mxGeometry x="150" y="300" width="120" height="60" as="geometry" />
        </mxCell>
        <mxCell id="LJfeOr0qLocQW3mJg4BL-20" style="edgeStyle=orthogonalEdgeStyle;rounded=0;orthogonalLoop=1;jettySize=auto;html=1;exitX=0.5;exitY=1;exitDx=0;exitDy=0;" edge="1" parent="1" source="LJfeOr0qLocQW3mJg4BL-6" target="LJfeOr0qLocQW3mJg4BL-8">
          <mxGeometry relative="1" as="geometry" />
        </mxCell>
        <mxCell id="LJfeOr0qLocQW3mJg4BL-6" value="视频特征提取特征提取" style="rounded=0;whiteSpace=wrap;html=1;" vertex="1" parent="1">
          <mxGeometry x="330" y="300" width="120" height="60" as="geometry" />
        </mxCell>
        <mxCell id="LJfeOr0qLocQW3mJg4BL-23" style="edgeStyle=orthogonalEdgeStyle;rounded=0;orthogonalLoop=1;jettySize=auto;html=1;exitX=0.5;exitY=1;exitDx=0;exitDy=0;entryX=0.5;entryY=0;entryDx=0;entryDy=0;" edge="1" parent="1" source="LJfeOr0qLocQW3mJg4BL-7" target="LJfeOr0qLocQW3mJg4BL-9">
          <mxGeometry relative="1" as="geometry" />
        </mxCell>
        <mxCell id="LJfeOr0qLocQW3mJg4BL-7" value="多模态模型构建" style="rounded=0;whiteSpace=wrap;html=1;" vertex="1" parent="1">
          <mxGeometry x="250" y="500" width="120" height="60" as="geometry" />
        </mxCell>
        <mxCell id="LJfeOr0qLocQW3mJg4BL-22" style="edgeStyle=orthogonalEdgeStyle;rounded=0;orthogonalLoop=1;jettySize=auto;html=1;exitX=0.5;exitY=1;exitDx=0;exitDy=0;entryX=0.5;entryY=0;entryDx=0;entryDy=0;" edge="1" parent="1" source="LJfeOr0qLocQW3mJg4BL-8" target="LJfeOr0qLocQW3mJg4BL-7">
          <mxGeometry relative="1" as="geometry" />
        </mxCell>
        <mxCell id="LJfeOr0qLocQW3mJg4BL-8" value="结合时域构建相关特征" style="rounded=0;whiteSpace=wrap;html=1;" vertex="1" parent="1">
          <mxGeometry x="250" y="400" width="120" height="60" as="geometry" />
        </mxCell>
        <mxCell id="LJfeOr0qLocQW3mJg4BL-26" style="edgeStyle=orthogonalEdgeStyle;rounded=0;orthogonalLoop=1;jettySize=auto;html=1;exitX=0.5;exitY=1;exitDx=0;exitDy=0;entryX=0.5;entryY=0;entryDx=0;entryDy=0;" edge="1" parent="1" source="LJfeOr0qLocQW3mJg4BL-9" target="LJfeOr0qLocQW3mJg4BL-11">
          <mxGeometry relative="1" as="geometry" />
        </mxCell>
        <mxCell id="LJfeOr0qLocQW3mJg4BL-9" value="模型优化" style="rounded=1;whiteSpace=wrap;html=1;" vertex="1" parent="1">
          <mxGeometry x="250" y="585" width="120" height="60" as="geometry" />
        </mxCell>
        <mxCell id="LJfeOr0qLocQW3mJg4BL-24" style="edgeStyle=orthogonalEdgeStyle;rounded=0;orthogonalLoop=1;jettySize=auto;html=1;exitX=0;exitY=0.5;exitDx=0;exitDy=0;" edge="1" parent="1" source="LJfeOr0qLocQW3mJg4BL-10" target="LJfeOr0qLocQW3mJg4BL-7">
          <mxGeometry relative="1" as="geometry" />
        </mxCell>
        <mxCell id="LJfeOr0qLocQW3mJg4BL-10" value="用户基础信息" style="rounded=0;whiteSpace=wrap;html=1;" vertex="1" parent="1">
          <mxGeometry x="390" y="500" width="120" height="60" as="geometry" />
        </mxCell>
        <mxCell id="LJfeOr0qLocQW3mJg4BL-27" style="edgeStyle=orthogonalEdgeStyle;rounded=0;orthogonalLoop=1;jettySize=auto;html=1;exitX=0.5;exitY=1;exitDx=0;exitDy=0;entryX=0.5;entryY=0;entryDx=0;entryDy=0;" edge="1" parent="1" source="LJfeOr0qLocQW3mJg4BL-11" target="LJfeOr0qLocQW3mJg4BL-13">
          <mxGeometry relative="1" as="geometry" />
        </mxCell>
        <mxCell id="LJfeOr0qLocQW3mJg4BL-11" value="人格识别系统" style="rounded=0;whiteSpace=wrap;html=1;" vertex="1" parent="1">
          <mxGeometry x="250" y="670" width="120" height="60" as="geometry" />
        </mxCell>
        <mxCell id="LJfeOr0qLocQW3mJg4BL-25" style="edgeStyle=orthogonalEdgeStyle;rounded=0;orthogonalLoop=1;jettySize=auto;html=1;exitX=0;exitY=0.5;exitDx=0;exitDy=0;entryX=1;entryY=0.5;entryDx=0;entryDy=0;" edge="1" parent="1" source="LJfeOr0qLocQW3mJg4BL-12" target="LJfeOr0qLocQW3mJg4BL-11">
          <mxGeometry relative="1" as="geometry" />
        </mxCell>
        <mxCell id="LJfeOr0qLocQW3mJg4BL-12" value="人格心理学家与模型特征分析规则" style="rounded=0;whiteSpace=wrap;html=1;" vertex="1" parent="1">
          <mxGeometry x="400" y="670" width="120" height="60" as="geometry" />
        </mxCell>
        <mxCell id="LJfeOr0qLocQW3mJg4BL-13" value="人格分析报告" style="rounded=1;whiteSpace=wrap;html=1;" vertex="1" parent="1">
          <mxGeometry x="250" y="760" width="120" height="60" as="geometry" />
        </mxCell>
      </root>
    </mxGraphModel>
  </diagram>
</mxfile>
